<svg width="15" height="20" viewBox="0 0 15 20" fill="none" xmlns="http://www.w3.org/2000/svg">
<path d="M14 15C14 16.5 13.6117 17.4908 13 18.5L5.5 18.5L3.85156 16.8516C2.91906 15.9191 3.1285 14.3551 4.2735 13.7009L5.5 13L5.5 7.75C5.5 6.7835 6.2835 6 7.25 6C8.2165 6 9 6.7835 9 7.75L9 11.0274C11.0979 11.2454 14 12 14 15Z" fill="url(#paint0_linear_71_17)"/>
<path d="M14 15C14 16.5 13.6117 17.4908 13 18.5L5.5 18.5L3.85156 16.8516C2.91906 15.9191 3.1285 14.3551 4.2735 13.7009L5.5 13L5.5 7.75C5.5 6.7835 6.2835 6 7.25 6C8.2165 6 9 6.7835 9 7.75L9 11.0274C11.0979 11.2454 14 12 14 15Z" stroke="white" stroke-width="1.5" stroke-linecap="round" stroke-linejoin="round"/>
<path d="M13 18.5C13.6117 17.4908 14 16.5 14 15C14 12 11.0979 11.2454 9 11.0274L9 7.75C9 6.7835 8.2165 6 7.25 6V6C6.2835 6 5.5 6.7835 5.5 7.75L5.5 13L4.2735 13.7009C3.1285 14.3551 2.91906 15.9191 3.85156 16.8516L5.5 18.5" stroke="white" stroke-width="1.5" stroke-linecap="round" stroke-linejoin="round"/>
<path d="M7.173 1.17029L7.173 3.15449" stroke="white" stroke-width="1.5" stroke-linecap="round"/>
<path d="M1.65431 7.79614H3.63852" stroke="white" stroke-width="1.5" stroke-linecap="round"/>
<path d="M2.72449 3.81787L4.37983 4.91191" stroke="white" stroke-width="1.5" stroke-linecap="round"/>
<path d="M7.173 1.17029V3.15449" stroke="white" stroke-width="1.5" stroke-linecap="round"/>
<path d="M12.6917 7.79614H10.7075" stroke="white" stroke-width="1.5" stroke-linecap="round"/>
<path d="M11.6215 3.81787L9.96618 4.91191" stroke="white" stroke-width="1.5" stroke-linecap="round"/>
<defs>
<linearGradient id="paint0_linear_71_17" x1="2" y1="12.25" x2="14" y2="12.25" gradientUnits="userSpaceOnUse">
<stop stop-color="#7700FF"/>
<stop offset="1" stop-color="#3800D4"/>
</linearGradient>
</defs>
</svg>
