<svg width="649" height="73" viewBox="0 0 649 73" fill="none" xmlns="http://www.w3.org/2000/svg">
<path d="M35.184 72L20.4 45.888H14.064V72H0.624001V4.992H25.776C30.96 4.992 35.376 5.92 39.024 7.776C42.672 9.568 45.392 12.032 47.184 15.168C49.04 18.24 49.968 21.696 49.968 25.536C49.968 29.952 48.688 33.952 46.128 37.536C43.568 41.056 39.76 43.488 34.704 44.832L50.736 72H35.184ZM14.064 35.808H25.296C28.944 35.808 31.664 34.944 33.456 33.216C35.248 31.424 36.144 28.96 36.144 25.824C36.144 22.752 35.248 20.384 33.456 18.72C31.664 16.992 28.944 16.128 25.296 16.128H14.064V35.808ZM58.668 45.216C58.668 39.84 59.724 35.072 61.836 30.912C64.012 26.752 66.924 23.552 70.572 21.312C74.284 19.072 78.412 17.952 82.956 17.952C86.924 17.952 90.38 18.752 93.324 20.352C96.332 21.952 98.732 23.968 100.524 26.4V18.816H114.06V72H100.524V64.224C98.796 66.72 96.396 68.8 93.324 70.464C90.316 72.064 86.828 72.864 82.86 72.864C78.38 72.864 74.284 71.712 70.572 69.408C66.924 67.104 64.012 63.872 61.836 59.712C59.724 55.488 58.668 50.656 58.668 45.216ZM100.524 45.408C100.524 42.144 99.884 39.36 98.604 37.056C97.324 34.688 95.596 32.896 93.42 31.68C91.244 30.4 88.908 29.76 86.412 29.76C83.916 29.76 81.612 30.368 79.5 31.584C77.388 32.8 75.66 34.592 74.316 36.96C73.036 39.264 72.396 42.016 72.396 45.216C72.396 48.416 73.036 51.232 74.316 53.664C75.66 56.032 77.388 57.856 79.5 59.136C81.676 60.416 83.98 61.056 86.412 61.056C88.908 61.056 91.244 60.448 93.42 59.232C95.596 57.952 97.324 56.16 98.604 53.856C99.884 51.488 100.524 48.672 100.524 45.408ZM156.659 18.048C162.995 18.048 168.115 20.064 172.019 24.096C175.923 28.064 177.875 33.632 177.875 40.8V72H164.435V42.624C164.435 38.4 163.379 35.168 161.267 32.928C159.155 30.624 156.275 29.472 152.627 29.472C148.915 29.472 145.971 30.624 143.795 32.928C141.683 35.168 140.627 38.4 140.627 42.624V72H127.187V18.816H140.627V25.44C142.419 23.136 144.691 21.344 147.443 20.064C150.259 18.72 153.331 18.048 156.659 18.048ZM187.199 45.216C187.199 39.84 188.255 35.072 190.367 30.912C192.543 26.752 195.455 23.552 199.103 21.312C202.815 19.072 206.943 17.952 211.487 17.952C215.455 17.952 218.911 18.752 221.855 20.352C224.863 21.952 227.263 23.968 229.055 26.4V18.816H242.591V72H229.055V64.224C227.327 66.72 224.927 68.8 221.855 70.464C218.847 72.064 215.359 72.864 211.391 72.864C206.911 72.864 202.815 71.712 199.103 69.408C195.455 67.104 192.543 63.872 190.367 59.712C188.255 55.488 187.199 50.656 187.199 45.216ZM229.055 45.408C229.055 42.144 228.415 39.36 227.135 37.056C225.855 34.688 224.127 32.896 221.951 31.68C219.775 30.4 217.439 29.76 214.943 29.76C212.447 29.76 210.143 30.368 208.031 31.584C205.919 32.8 204.191 34.592 202.847 36.96C201.567 39.264 200.927 42.016 200.927 45.216C200.927 48.416 201.567 51.232 202.847 53.664C204.191 56.032 205.919 57.856 208.031 59.136C210.207 60.416 212.511 61.056 214.943 61.056C217.439 61.056 219.775 60.448 221.951 59.232C224.127 57.952 225.855 56.16 227.135 53.856C228.415 51.488 229.055 48.672 229.055 45.408ZM294.79 4.992V52.032C294.79 58.56 292.902 63.648 289.126 67.296C285.35 70.88 280.294 72.672 273.958 72.672C267.558 72.672 262.374 70.816 258.406 67.104C254.502 63.392 252.55 58.208 252.55 51.552H265.99C266.054 54.432 266.726 56.672 268.006 58.272C269.35 59.872 271.27 60.672 273.766 60.672C276.198 60.672 278.054 59.904 279.334 58.368C280.614 56.832 281.254 54.72 281.254 52.032V4.992H294.79ZM334.084 72.864C328.964 72.864 324.356 71.744 320.26 69.504C316.164 67.2 312.932 63.968 310.564 59.808C308.26 55.648 307.108 50.848 307.108 45.408C307.108 39.968 308.292 35.168 310.66 31.008C313.092 26.848 316.388 23.648 320.548 21.408C324.708 19.104 329.348 17.952 334.468 17.952C339.588 17.952 344.228 19.104 348.388 21.408C352.548 23.648 355.812 26.848 358.18 31.008C360.612 35.168 361.828 39.968 361.828 45.408C361.828 50.848 360.58 55.648 358.084 59.808C355.652 63.968 352.324 67.2 348.1 69.504C343.94 71.744 339.268 72.864 334.084 72.864ZM334.084 61.152C336.516 61.152 338.788 60.576 340.9 59.424C343.076 58.208 344.804 56.416 346.084 54.048C347.364 51.68 348.004 48.8 348.004 45.408C348.004 40.352 346.66 36.48 343.972 33.792C341.348 31.04 338.116 29.664 334.276 29.664C330.436 29.664 327.204 31.04 324.58 33.792C322.02 36.48 320.74 40.352 320.74 45.408C320.74 50.464 321.988 54.368 324.484 57.12C327.044 59.808 330.244 61.152 334.084 61.152ZM385.127 0.959999V72H371.687V0.959999H385.127ZM411.845 0.959999V72H398.405V0.959999H411.845ZM421.668 45.216C421.668 39.84 422.724 35.072 424.836 30.912C427.012 26.752 429.924 23.552 433.572 21.312C437.284 19.072 441.412 17.952 445.956 17.952C449.924 17.952 453.38 18.752 456.324 20.352C459.332 21.952 461.732 23.968 463.524 26.4V18.816H477.06V72H463.524V64.224C461.796 66.72 459.396 68.8 456.324 70.464C453.316 72.064 449.828 72.864 445.86 72.864C441.38 72.864 437.284 71.712 433.572 69.408C429.924 67.104 427.012 63.872 424.836 59.712C422.724 55.488 421.668 50.656 421.668 45.216ZM463.524 45.408C463.524 42.144 462.884 39.36 461.604 37.056C460.324 34.688 458.596 32.896 456.42 31.68C454.244 30.4 451.908 29.76 449.412 29.76C446.916 29.76 444.612 30.368 442.5 31.584C440.388 32.8 438.66 34.592 437.316 36.96C436.036 39.264 435.396 42.016 435.396 45.216C435.396 48.416 436.036 51.232 437.316 53.664C438.66 56.032 440.388 57.856 442.5 59.136C444.676 60.416 446.98 61.056 449.412 61.056C451.908 61.056 454.244 60.448 456.42 59.232C458.596 57.952 460.324 56.16 461.604 53.856C462.884 51.488 463.524 48.672 463.524 45.408ZM519.659 18.048C525.995 18.048 531.115 20.064 535.019 24.096C538.923 28.064 540.875 33.632 540.875 40.8V72H527.435V42.624C527.435 38.4 526.379 35.168 524.267 32.928C522.155 30.624 519.275 29.472 515.627 29.472C511.915 29.472 508.971 30.624 506.795 32.928C504.683 35.168 503.627 38.4 503.627 42.624V72H490.187V18.816H503.627V25.44C505.419 23.136 507.691 21.344 510.443 20.064C513.259 18.72 516.331 18.048 519.659 18.048ZM550.199 45.216C550.199 39.84 551.255 35.072 553.367 30.912C555.543 26.752 558.455 23.552 562.103 21.312C565.815 19.072 569.943 17.952 574.487 17.952C578.455 17.952 581.911 18.752 584.855 20.352C587.863 21.952 590.263 23.968 592.055 26.4V18.816H605.591V72H592.055V64.224C590.327 66.72 587.927 68.8 584.855 70.464C581.847 72.064 578.359 72.864 574.391 72.864C569.911 72.864 565.815 71.712 562.103 69.408C558.455 67.104 555.543 63.872 553.367 59.712C551.255 55.488 550.199 50.656 550.199 45.216ZM592.055 45.408C592.055 42.144 591.415 39.36 590.135 37.056C588.855 34.688 587.127 32.896 584.951 31.68C582.775 30.4 580.439 29.76 577.943 29.76C575.447 29.76 573.143 30.368 571.031 31.584C568.919 32.8 567.191 34.592 565.847 36.96C564.567 39.264 563.927 42.016 563.927 45.216C563.927 48.416 564.567 51.232 565.847 53.664C567.191 56.032 568.919 57.856 571.031 59.136C573.207 60.416 575.511 61.056 577.943 61.056C580.439 61.056 582.775 60.448 584.951 59.232C587.127 57.952 588.855 56.16 590.135 53.856C591.415 51.488 592.055 48.672 592.055 45.408ZM632.158 27.072C633.886 24.256 636.126 22.048 638.878 20.448C641.694 18.848 644.894 18.048 648.478 18.048V32.16H644.926C640.702 32.16 637.502 33.152 635.326 35.136C633.214 37.12 632.158 40.576 632.158 45.504V72H618.718V18.816H632.158V27.072Z" fill="white"/>
</svg>
